mtllib materials.mtl
v -0.2021836 0.1134696 0.05808283
v -0.185871 0.1175529 0.06900413
v -0.2286447 0.2192916 0.09089074
v -0.2449278 0.2151747 0.080032
v -0.211254 0.1062961 0.07449558
v -0.2539955 0.2079985 0.09635007
v -0.2377124 0.2121154 0.1072088
v -0.1949413 0.1103792 0.08541697
v -0.2021836 0.1134696 0.05808283
v -0.211254 0.1062961 0.07449558
v -0.170873 0.02860057 0.05109389
v -0.1673787 0.03136241 0.044736
v -0.2449278 0.2151747 0.080032
v -0.2286447 0.2192916 0.09089074
v -0.3000771 0.3285853 0.1128572
v -0.3163603 0.3244683 0.1019984
v -0.2021836 0.1134696 0.05808283
v -0.2449278 0.2151747 0.080032
v -0.2539955 0.2079985 0.09635007
v -0.211254 0.1062961 0.07449558
v -0.185871 0.1175529 0.06900413
v -0.1949413 0.1103792 0.08541697
v -0.2377124 0.2121154 0.1072088
v -0.2286447 0.2192916 0.09089074
v -0.2286447 0.2192916 0.09089074
v -0.2377124 0.2121154 0.1072088
v -0.3091449 0.3214091 0.1291752
v -0.3000771 0.3285853 0.1128572
v -0.2377124 0.2121154 0.1072088
v -0.2539955 0.2079985 0.09635007
v -0.325428 0.3172921 0.1183165
v -0.3091449 0.3214091 0.1291752
v -0.2539955 0.2079985 0.09635007
v -0.2449278 0.2151747 0.080032
v -0.2709988 0.1448101 0.02976136
v -0.2800665 0.1376339 0.04607943
v -0.3163603 0.3244683 0.1019984
v -0.3000771 0.3285853 0.1128572
v -0.3900272 0.4188739 0.1181543
v -0.4063104 0.4147571 0.1072955
v -0.3000771 0.3285853 0.1128572
v -0.3091449 0.3214091 0.1291752
v -0.3990949 0.411698 0.1344723
v -0.3900272 0.4188739 0.1181543
v -0.3091449 0.3214091 0.1291752
v -0.325428 0.3172921 0.1183165
v -0.4153781 0.407581 0.1236136
v -0.3990949 0.411698 0.1344723
v -0.325428 0.3172921 0.1183165
v -0.3163603 0.3244683 0.1019984
v -0.347565 0.2699207 0.06213577
v -0.3566327 0.2627445 0.07845385
v -0.4063104 0.4147571 0.1072955
v -0.3900272 0.4188739 0.1181543
v -0.5141382 0.4802586 0.09579284
v -0.5219264 0.4782895 0.09059914
v -0.3900272 0.4188739 0.1181543
v -0.3990949 0.411698 0.1344723
v -0.5184753 0.4768263 0.1035977
v -0.5141382 0.4802586 0.09579284
v -0.3990949 0.411698 0.1344723
v -0.4153781 0.407581 0.1236136
v -0.5262635 0.474857 0.09840402
v -0.5184753 0.4768263 0.1035977
v -0.4153781 0.407581 0.1236136
v -0.4063104 0.4147571 0.1072955
v -0.4387609 0.3712691 0.07307602
v -0.4478287 0.3640929 0.0893941
v -0.5219264 0.4782895 0.09059914
v -0.5141382 0.4802586 0.09579284
v -0.5184753 0.4768263 0.1035977
v -0.5262635 0.474857 0.09840402
v -0.4063104 0.4147571 0.1072955
v -0.5219264 0.4782895 0.09059914
v -0.5543771 0.4348017 0.05637965
v -0.4387609 0.3712691 0.07307602
v -0.5219264 0.4782895 0.09059914
v -0.5262635 0.474857 0.09840402
v -0.5587142 0.4313692 0.06418454
v -0.5543771 0.4348017 0.05637965
v -0.5262635 0.474857 0.09840402
v -0.4153781 0.407581 0.1236136
v -0.4478287 0.3640929 0.0893941
v -0.5587142 0.4313692 0.06418454
v -0.4478287 0.3640929 0.0893941
v -0.4387609 0.3712691 0.07307602
v -0.5543771 0.4348017 0.05637965
v -0.5587142 0.4313692 0.06418454
v -0.3163603 0.3244683 0.1019984
v -0.4063104 0.4147571 0.1072955
v -0.437515 0.3602096 0.06743288
v -0.347565 0.2699207 0.06213577
v -0.4063104 0.4147571 0.1072955
v -0.4153781 0.407581 0.1236136
v -0.4465827 0.3530332 0.08375096
v -0.437515 0.3602096 0.06743288
v -0.4153781 0.407581 0.1236136
v -0.325428 0.3172921 0.1183165
v -0.3566327 0.2627445 0.07845385
v -0.4465827 0.3530332 0.08375096
v -0.3566327 0.2627445 0.07845385
v -0.347565 0.2699207 0.06213577
v -0.437515 0.3602096 0.06743288
v -0.4465827 0.3530332 0.08375096
v -0.2449278 0.2151747 0.080032
v -0.3163603 0.3244683 0.1019984
v -0.3424313 0.2541039 0.05172776
v -0.2709988 0.1448101 0.02976136
v -0.3163603 0.3244683 0.1019984
v -0.325428 0.3172921 0.1183165
v -0.351499 0.2469277 0.06804584
v -0.3424313 0.2541039 0.05172776
v -0.325428 0.3172921 0.1183165
v -0.2539955 0.2079985 0.09635007
v -0.2800665 0.1376339 0.04607943
v -0.351499 0.2469277 0.06804584
v -0.2800665 0.1376339 0.04607943
v -0.2709988 0.1448101 0.02976136
v -0.3424313 0.2541039 0.05172776
v -0.351499 0.2469277 0.06804584
v -0.211254 0.1062961 0.07449558
v -0.1949413 0.1103792 0.08541697
v -0.164579 0.03016019 0.05532436
v -0.170873 0.02860057 0.05109389
v -0.1949413 0.1103792 0.08541697
v -0.185871 0.1175529 0.06900413
v -0.1610847 0.03292203 0.04896647
v -0.164579 0.03016019 0.05532436
v -0.185871 0.1175529 0.06900413
v -0.2021836 0.1134696 0.05808283
v -0.1673787 0.03136241 0.044736
v -0.1610847 0.03292203 0.04896647
v -0.1673787 0.03136241 0.044736
v -0.170873 0.02860057 0.05109389
v -0.164579 0.03016019 0.05532436
v -0.1610847 0.03292203 0.04896647
v -0.1749171 -0.01135576 0.1256802
v -0.1405005 -0.01114786 0.1143482
v -0.1405809 -0.03113842 0.1137379
v -0.1749973 -0.0313462 0.1250699
v -0.1405005 -0.01114786 0.1143482
v -0.1163615 -0.01041996 0.0873348
v -0.1164417 -0.03041053 0.08672445
v -0.1405809 -0.03113842 0.1137379
v -0.1163615 -0.01041996 0.0873348
v -0.1089679 -0.009367108 0.05187812
v -0.1090481 -0.02935755 0.05126777
v -0.1164417 -0.03041053 0.08672445
v -0.1089679 -0.009367108 0.05187812
v -0.1203009 -0.008271337 0.01747878
v -0.1203811 -0.02826178 0.01686841
v -0.1090481 -0.02935755 0.05126777
v -0.1203009 -0.008271337 0.01747878
v -0.1473236 -0.007426143 -0.006645948
v -0.1474038 -0.02741671 -0.007256314
v -0.1203811 -0.02826178 0.01686841
v -0.1473236 -0.007426143 -0.006645948
v -0.1827956 -0.007058263 -0.01403187
v -0.1828759 -0.02704871 -0.01464222
v -0.1474038 -0.02741671 -0.007256314
v -0.1827956 -0.007058263 -0.01403187
v -0.2172121 -0.007266045 -0.002699897
v -0.2172925 -0.02725661 -0.003310248
v -0.1828759 -0.02704871 -0.01464222
v -0.2172121 -0.007266045 -0.002699897
v -0.2413512 -0.007993937 0.02431354
v -0.2414315 -0.0279845 0.02370317
v -0.2172925 -0.02725661 -0.003310248
v -0.2413512 -0.007993937 0.02431354
v -0.2487448 -0.009046793 0.05977021
v -0.2488251 -0.02903736 0.05915986
v -0.2414315 -0.0279845 0.02370317
v -0.2487448 -0.009046793 0.05977021
v -0.237412 -0.01014268 0.09416956
v -0.2374922 -0.03013313 0.0935592
v -0.2488251 -0.02903736 0.05915986
v -0.237412 -0.01014268 0.09416956
v -0.210389 -0.01098776 0.1182943
v -0.2104694 -0.03097832 0.1176839
v -0.2374922 -0.03013313 0.0935592
v -0.210389 -0.01098776 0.1182943
v -0.1749171 -0.01135576 0.1256802
v -0.1749973 -0.0313462 0.1250699
v -0.2104694 -0.03097832 0.1176839
v -0.210389 -0.01098776 0.1182943
v -0.237412 -0.01014268 0.09416956
v -0.2495859 0.02024817 0.103156
v -0.2168881 0.0192256 0.1323469
v -0.1749973 -0.0313462 0.1250699
v -0.1405809 -0.03113842 0.1137379
v -0.1164417 -0.03041053 0.08672445
v -0.1090481 -0.02935755 0.05126777
v -0.1203811 -0.02826178 0.01686841
v -0.1474038 -0.02741671 -0.007256314
v -0.1828759 -0.02704871 -0.01464222
v -0.2172925 -0.02725661 -0.003310248
v -0.2414315 -0.0279845 0.02370317
v -0.2488251 -0.02903736 0.05915986
v -0.2374922 -0.03013313 0.0935592
v -0.2104694 -0.03097832 0.1176839
v -0.237412 -0.01014268 0.09416956
v -0.2487448 -0.009046793 0.05977021
v -0.2632987 0.02157414 0.0615328
v -0.2495859 0.02024817 0.103156
v -0.2487448 -0.009046793 0.05977021
v -0.2413512 -0.007993937 0.02431354
v -0.2543524 0.02284813 0.01863022
v -0.2632987 0.02157414 0.0615328
v -0.2413512 -0.007993937 0.02431354
v -0.2172121 -0.007266045 -0.002699897
v -0.225144 0.02372885 -0.01405604
v -0.2543524 0.02284813 0.01863022
v -0.2172121 -0.007266045 -0.002699897
v -0.1827956 -0.007058263 -0.01403187
v -0.1835002 0.02398038 -0.02776773
v -0.225144 0.02372885 -0.01405604
v -0.1827956 -0.007058263 -0.01403187
v -0.1473236 -0.007426143 -0.006645948
v -0.140579 0.02353513 -0.01883078
v -0.1835002 0.02398038 -0.02776773
v -0.1473236 -0.007426143 -0.006645948
v -0.1203009 -0.008271337 0.01747878
v -0.1078813 0.02251256 0.01036015
v -0.140579 0.02353513 -0.01883078
v -0.1203009 -0.008271337 0.01747878
v -0.1089679 -0.009367108 0.05187812
v -0.09416854 0.02118659 0.05198336
v -0.1078813 0.02251256 0.01036015
v -0.1089679 -0.009367108 0.05187812
v -0.1163615 -0.01041996 0.0873348
v -0.1031148 0.0199126 0.09488594
v -0.09416854 0.02118659 0.05198336
v -0.1163615 -0.01041996 0.0873348
v -0.1405005 -0.01114786 0.1143482
v -0.1323231 0.01903188 0.1275722
v -0.1031148 0.0199126 0.09488594
v -0.1405005 -0.01114786 0.1143482
v -0.1749171 -0.01135576 0.1256802
v -0.173967 0.01878047 0.1412839
v -0.1323231 0.01903188 0.1275722
v -0.1749171 -0.01135576 0.1256802
v -0.210389 -0.01098776 0.1182943
v -0.2168881 0.0192256 0.1323469
v -0.173967 0.01878047 0.1412839
v -0.2168881 0.0192256 0.1323469
v -0.2495859 0.02024817 0.103156
v -0.2157959 0.07431269 0.08280358
v -0.1985928 0.07377458 0.0981617
v -0.2495859 0.02024817 0.103156
v -0.2632987 0.02157414 0.0615328
v -0.2230108 0.0750103 0.06090453
v -0.2157959 0.07431269 0.08280358
v -0.2632987 0.02157414 0.0615328
v -0.2543524 0.02284813 0.01863022
v -0.2183037 0.07568061 0.03833234
v -0.2230108 0.0750103 0.06090453
v -0.2543524 0.02284813 0.01863022
v -0.225144 0.02372885 -0.01405604
v -0.2029364 0.07614398 0.02113523
v -0.2183037 0.07568061 0.03833234
v -0.225144 0.02372885 -0.01405604
v -0.1835002 0.02398038 -0.02776773
v -0.1810265 0.0762763 0.01392116
v -0.2029364 0.07614398 0.02113523
v -0.1835002 0.02398038 -0.02776773
v -0.140579 0.02353513 -0.01883078
v -0.1584445 0.07604206 0.01862313
v -0.1810265 0.0762763 0.01392116
v -0.140579 0.02353513 -0.01883078
v -0.1078813 0.02251256 0.01036015
v -0.1412416 0.07550395 0.03398123
v -0.1584445 0.07604206 0.01862313
v -0.1078813 0.02251256 0.01036015
v -0.09416854 0.02118659 0.05198336
v -0.1340268 0.07480633 0.05588031
v -0.1412416 0.07550395 0.03398123
v -0.09416854 0.02118659 0.05198336
v -0.1031148 0.0199126 0.09488594
v -0.1387337 0.07413614 0.0784525
v -0.1340268 0.07480633 0.05588031
v -0.1031148 0.0199126 0.09488594
v -0.1323231 0.01903188 0.1275722
v -0.1541009 0.07367277 0.09564959
v -0.1387337 0.07413614 0.0784525
v -0.1323231 0.01903188 0.1275722
v -0.173967 0.01878047 0.1412839
v -0.1760108 0.07354045 0.1028637
v -0.1541009 0.07367277 0.09564959
v -0.173967 0.01878047 0.1412839
v -0.2168881 0.0192256 0.1323469
v -0.1985928 0.07377458 0.0981617
v -0.1760108 0.07354045 0.1028637
v -0.1985928 0.07377458 0.0981617
v -0.2157959 0.07431269 0.08280358
v -0.2194315 0.0971936 0.08594513
v -0.2005081 0.09660172 0.1028391
v -0.2157959 0.07431269 0.08280358
v -0.2230108 0.0750103 0.06090453
v -0.2273678 0.09796095 0.06185618
v -0.2194315 0.0971936 0.08594513
v -0.2230108 0.0750103 0.06090453
v -0.2183037 0.07568061 0.03833234
v -0.2221901 0.09869826 0.03702678
v -0.2273678 0.09796095 0.06185618
v -0.2183037 0.07568061 0.03833234
v -0.2029364 0.07614398 0.02113523
v -0.2052861 0.099208 0.01810995
v -0.2221901 0.09869826 0.03702678
v -0.2029364 0.07614398 0.02113523
v -0.1810265 0.0762763 0.01392116
v -0.1811852 0.09935355 0.01017444
v -0.2052861 0.099208 0.01810995
v -0.1810265 0.0762763 0.01392116
v -0.1584445 0.07604206 0.01862313
v -0.156345 0.09909594 0.01534663
v -0.1811852 0.09935355 0.01017444
v -0.1584445 0.07604206 0.01862313
v -0.1412416 0.07550395 0.03398123
v -0.1374217 0.09850407 0.03224054
v -0.156345 0.09909594 0.01534663
v -0.1412416 0.07550395 0.03398123
v -0.1340268 0.07480633 0.05588031
v -0.1294856 0.09773672 0.05632953
v -0.1374217 0.09850407 0.03224054
v -0.1340268 0.07480633 0.05588031
v -0.1387337 0.07413614 0.0784525
v -0.1346631 0.09699941 0.08115893
v -0.1294856 0.09773672 0.05632953
v -0.1387337 0.07413614 0.0784525
v -0.1541009 0.07367277 0.09564959
v -0.1515671 0.09648967 0.1000757
v -0.1346631 0.09699941 0.08115893
v -0.1541009 0.07367277 0.09564959
v -0.1760108 0.07354045 0.1028637
v -0.175668 0.09634411 0.1080112
v -0.1515671 0.09648967 0.1000757
v -0.1760108 0.07354045 0.1028637
v -0.1985928 0.07377458 0.0981617
v -0.2005081 0.09660172 0.1028391
v -0.175668 0.09634411 0.1080112
v -0.2005081 0.09660172 0.1028391
v -0.2194315 0.0971936 0.08594513
v -0.2226038 0.1047894 0.08827606
v -0.2022021 0.1041511 0.1064895
v -0.2194315 0.0971936 0.08594513
v -0.2273678 0.09796095 0.06185618
v -0.2311599 0.1056166 0.0623055
v -0.2226038 0.1047894 0.08827606
v -0.2273678 0.09796095 0.06185618
v -0.2221901 0.09869826 0.03702678
v -0.2255778 0.1064116 0.03553668
v -0.2311599 0.1056166 0.0623055
v -0.2221901 0.09869826 0.03702678
v -0.2052861 0.099208 0.01810995
v -0.2073534 0.106961 0.01514225
v -0.2255778 0.1064116 0.03553668
v -0.2052861 0.099208 0.01810995
v -0.1811852 0.09935355 0.01017444
v -0.18137 0.107118 0.006586909
v -0.2073534 0.106961 0.01514225
v -0.1811852 0.09935355 0.01017444
v -0.156345 0.09909594 0.01534663
v -0.1545894 0.1068403 0.01216309
v -0.18137 0.107118 0.006586909
v -0.156345 0.09909594 0.01534663
v -0.1374217 0.09850407 0.03224054
v -0.1341882 0.106202 0.03037658
v -0.1545894 0.1068403 0.01216309
v -0.1374217 0.09850407 0.03224054
v -0.1294856 0.09773672 0.05632953
v -0.1256319 0.1053747 0.05634715
v -0.1341882 0.106202 0.03037658
v -0.1294856 0.09773672 0.05632953
v -0.1346631 0.09699941 0.08115893
v -0.1312141 0.1045798 0.08311599
v -0.1256319 0.1053747 0.05634715
v -0.1346631 0.09699941 0.08115893
v -0.1515671 0.09648967 0.1000757
v -0.1494384 0.1040303 0.1035104
v -0.1312141 0.1045798 0.08311599
v -0.1515671 0.09648967 0.1000757
v -0.175668 0.09634411 0.1080112
v -0.1754218 0.1038734 0.1120657
v -0.1494384 0.1040303 0.1035104
v -0.175668 0.09634411 0.1080112
v -0.2005081 0.09660172 0.1028391
v -0.2022021 0.1041511 0.1064895
v -0.1754218 0.1038734 0.1120657
v -0.1312141 0.1045798 0.08311599
v -0.1494384 0.1040303 0.1035104
v -0.1564783 0.1043856 0.09276861
v -0.1494384 0.1040303 0.1035104
v -0.1754218 0.1038734 0.1120657
v -0.1761448 0.1042672 0.09924402
v -0.1564783 0.1043856 0.09276861
v -0.1754218 0.1038734 0.1120657
v -0.2022021 0.1041511 0.1064895
v -0.1761448 0.1042672 0.09924402
v -0.1426846 0.1048025 0.07733238
v -0.1312141 0.1045798 0.08311599
v -0.1564783 0.1043856 0.09276861
v -0.1426846 0.1048025 0.07733238
v -0.1256319 0.1053747 0.05634715
v -0.1312141 0.1045798 0.08311599
v -0.1384596 0.105404 0.05707141
v -0.1256319 0.1053747 0.05634715
v -0.1426846 0.1048025 0.07733238
v -0.1384596 0.105404 0.05707141
v -0.1341882 0.106202 0.03037658
v -0.1256319 0.1053747 0.05634715
v -0.1449356 0.1060302 0.03741464
v -0.1341882 0.106202 0.03037658
v -0.1384596 0.105404 0.05707141
v -0.1449356 0.1060302 0.03741464
v -0.1545894 0.1068403 0.01216309
v -0.1341882 0.106202 0.03037658
v -0.1603771 0.1065133 0.02362908
v -0.1545894 0.1068403 0.01216309
v -0.1449356 0.1060302 0.03741464
v -0.1603771 0.1065133 0.02362908
v -0.18137 0.107118 0.006586909
v -0.1545894 0.1068403 0.01216309
v -0.1806469 0.1067238 0.01940858
v -0.18137 0.107118 0.006586909
v -0.1603771 0.1065133 0.02362908
v -0.1806469 0.1067238 0.01940858
v -0.2073534 0.106961 0.01514225
v -0.18137 0.107118 0.006586909
v -0.2003134 0.1066054 0.025884
v -0.2073534 0.106961 0.01514225
v -0.1806469 0.1067238 0.01940858
v -0.2003134 0.1066054 0.025884
v -0.2255778 0.1064116 0.03553668
v -0.2073534 0.106961 0.01514225
v -0.2141072 0.1061898 0.04132026
v -0.2255778 0.1064116 0.03553668
v -0.2003134 0.1066054 0.025884
v -0.2141072 0.1061898 0.04132026
v -0.2311599 0.1056166 0.0623055
v -0.2255778 0.1064116 0.03553668
v -0.2183322 0.1055883 0.06158123
v -0.2311599 0.1056166 0.0623055
v -0.2141072 0.1061898 0.04132026
v -0.2183322 0.1055883 0.06158123
v -0.2226038 0.1047894 0.08827606
v -0.2311599 0.1056166 0.0623055
v -0.2118562 0.1049621 0.08123799
v -0.2226038 0.1047894 0.08827606
v -0.2183322 0.1055883 0.06158123
v -0.2118562 0.1049621 0.08123799
v -0.2022021 0.1041511 0.1064895
v -0.2226038 0.1047894 0.08827606
v -0.1964146 0.1044787 0.09502353
v -0.2022021 0.1041511 0.1064895
v -0.2118562 0.1049621 0.08123799
v -0.1964146 0.1044787 0.09502353
v -0.1761448 0.1042672 0.09924402
v -0.2022021 0.1041511 0.1064895
v -0.1966343 0.04974699 0.09335245
v -0.2120759 0.05022991 0.07956688
v -0.2185519 0.05085611 0.05991012
v -0.214327 0.05145776 0.03964916
v -0.2005332 0.05187368 0.02421291
v -0.1808666 0.05199242 0.01773751
v -0.160597 0.05178213 0.02195801
v -0.1451553 0.05129933 0.03574356
v -0.1386794 0.05067313 0.05540035
v -0.1429043 0.05007148 0.0756613
v -0.156698 0.04965556 0.09109756
v -0.1763645 0.04953682 0.09757297
v -0.1564783 0.1043856 0.09276861
v -0.1761448 0.1042672 0.09924402
v -0.1763645 0.04953682 0.09757297
v -0.156698 0.04965556 0.09109756
v -0.1426846 0.1048025 0.07733238
v -0.1564783 0.1043856 0.09276861
v -0.156698 0.04965556 0.09109756
v -0.1429043 0.05007148 0.0756613
v -0.1384596 0.105404 0.05707141
v -0.1426846 0.1048025 0.07733238
v -0.1429043 0.05007148 0.0756613
v -0.1386794 0.05067313 0.05540035
v -0.1449356 0.1060302 0.03741464
v -0.1384596 0.105404 0.05707141
v -0.1386794 0.05067313 0.05540035
v -0.1451553 0.05129933 0.03574356
v -0.1603771 0.1065133 0.02362908
v -0.1449356 0.1060302 0.03741464
v -0.1451553 0.05129933 0.03574356
v -0.160597 0.05178213 0.02195801
v -0.1806469 0.1067238 0.01940858
v -0.1603771 0.1065133 0.02362908
v -0.160597 0.05178213 0.02195801
v -0.1808666 0.05199242 0.01773751
v -0.2003134 0.1066054 0.025884
v -0.1806469 0.1067238 0.01940858
v -0.1808666 0.05199242 0.01773751
v -0.2005332 0.05187368 0.02421291
v -0.2141072 0.1061898 0.04132026
v -0.2003134 0.1066054 0.025884
v -0.2005332 0.05187368 0.02421291
v -0.214327 0.05145776 0.03964916
v -0.2183322 0.1055883 0.06158123
v -0.2141072 0.1061898 0.04132026
v -0.214327 0.05145776 0.03964916
v -0.2185519 0.05085611 0.05991012
v -0.2118562 0.1049621 0.08123799
v -0.2183322 0.1055883 0.06158123
v -0.2185519 0.05085611 0.05991012
v -0.2120759 0.05022991 0.07956688
v -0.1964146 0.1044787 0.09502353
v -0.2118562 0.1049621 0.08123799
v -0.2120759 0.05022991 0.07956688
v -0.1966343 0.04974699 0.09335245
v -0.1761448 0.1042672 0.09924402
v -0.1964146 0.1044787 0.09502353
v -0.1966343 0.04974699 0.09335245
v -0.1763645 0.04953682 0.09757297
v -0.1755981 -0.01033092 0.1135762
v -0.1471548 -0.01015913 0.104211
v -0.1472212 -0.02668023 0.1037065
v -0.1756645 -0.02685201 0.1130718
v -0.1471548 -0.01015913 0.104211
v -0.1272051 -0.009557605 0.08188583
v -0.1272715 -0.0260787 0.0813814
v -0.1472212 -0.02668023 0.1037065
v -0.1272051 -0.009557605 0.08188583
v -0.1210947 -0.008687496 0.05258284
v -0.1211611 -0.02520847 0.05207838
v -0.1272715 -0.0260787 0.0813814
v -0.1210947 -0.008687496 0.05258284
v -0.1304607 -0.007781863 0.02415363
v -0.1305271 -0.02430284 0.0236492
v -0.1211611 -0.02520847 0.05207838
v -0.1304607 -0.007781863 0.02415363
v -0.1527936 -0.007083297 0.004215851
v -0.1528599 -0.02360451 0.003711417
v -0.1305271 -0.02430284 0.0236492
v -0.1527936 -0.007083297 0.004215851
v -0.1821094 -0.006779194 -0.00188823
v -0.1821756 -0.02330029 -0.00239265
v -0.1528599 -0.02360451 0.003711417
v -0.1821094 -0.006779194 -0.00188823
v -0.2105527 -0.006950974 0.007477045
v -0.2106191 -0.02347207 0.006972581
v -0.1821756 -0.02330029 -0.00239265
v -0.2105527 -0.006950974 0.007477045
v -0.2305023 -0.007552505 0.02980216
v -0.2305687 -0.0240736 0.02929771
v -0.2106191 -0.02347207 0.006972581
v -0.2305023 -0.007552505 0.02980216
v -0.2366128 -0.008422732 0.05910515
v -0.2366792 -0.02494371 0.05860072
v -0.2305687 -0.0240736 0.02929771
v -0.2366128 -0.008422732 0.05910515
v -0.2272468 -0.009328365 0.08753433
v -0.2273131 -0.02584934 0.0870299
v -0.2366792 -0.02494371 0.05860072
v -0.2272468 -0.009328365 0.08753433
v -0.2049139 -0.01002681 0.1074721
v -0.2049803 -0.02654791 0.1069677
v -0.2273131 -0.02584934 0.0870299
v -0.2049139 -0.01002681 0.1074721
v -0.1755981 -0.01033092 0.1135762
v -0.1756645 -0.02685201 0.1130718
v -0.2049803 -0.02654791 0.1069677
v -0.2049139 -0.01002681 0.1074721
v -0.2272468 -0.009328365 0.08753433
v -0.2373078 0.01578808 0.09496114
v -0.2102849 0.01494288 0.1190859
v -0.1756645 -0.02685201 0.1130718
v -0.1472212 -0.02668023 0.1037065
v -0.1272715 -0.0260787 0.0813814
v -0.1211611 -0.02520847 0.05207838
v -0.1305271 -0.02430284 0.0236492
v -0.1528599 -0.02360451 0.003711417
v -0.1821756 -0.02330029 -0.00239265
v -0.2106191 -0.02347207 0.006972581
v -0.2305687 -0.0240736 0.02929771
v -0.2366792 -0.02494371 0.05860072
v -0.2273131 -0.02584934 0.0870299
v -0.2049803 -0.02654791 0.1069677
v -0.2272468 -0.009328365 0.08753433
v -0.2366128 -0.008422732 0.05910515
v -0.2486408 0.01688385 0.06056184
v -0.2373078 0.01578808 0.09496114
v -0.2366128 -0.008422732 0.05910515
v -0.2305023 -0.007552505 0.02980216
v -0.2412471 0.01793683 0.02510519
v -0.2486408 0.01688385 0.06056184
v -0.2305023 -0.007552505 0.02980216
v -0.2105527 -0.006950974 0.007477045
v -0.2171079 0.0186646 -0.001908228
v -0.2412471 0.01793683 0.02510519
v -0.2105527 -0.006950974 0.007477045
v -0.1821094 -0.006779194 -0.00188823
v -0.1826915 0.0188725 -0.01324016
v -0.2171079 0.0186646 -0.001908228
v -0.1821094 -0.006779194 -0.00188823
v -0.1527936 -0.007083297 0.004215851
v -0.1472194 0.0185045 -0.005854234
v -0.1826915 0.0188725 -0.01324016
v -0.1527936 -0.007083297 0.004215851
v -0.1304607 -0.007781863 0.02415363
v -0.1201967 0.01765931 0.01827051
v -0.1472194 0.0185045 -0.005854234
v -0.1304607 -0.007781863 0.02415363
v -0.1210947 -0.008687496 0.05258284
v -0.1088638 0.01656353 0.05266982
v -0.1201967 0.01765931 0.01827051
v -0.1210947 -0.008687496 0.05258284
v -0.1272051 -0.009557605 0.08188583
v -0.1162574 0.01551068 0.08812647
v -0.1088638 0.01656353 0.05266982
v -0.1272051 -0.009557605 0.08188583
v -0.1471548 -0.01015913 0.104211
v -0.1403966 0.01478279 0.1151398
v -0.1162574 0.01551068 0.08812647
v -0.1471548 -0.01015913 0.104211
v -0.1755981 -0.01033092 0.1135762
v -0.174813 0.014575 0.1264718
v -0.1403966 0.01478279 0.1151398
v -0.1755981 -0.01033092 0.1135762
v -0.2049139 -0.01002681 0.1074721
v -0.2102849 0.01494288 0.1190859
v -0.174813 0.014575 0.1264718
v -0.2102849 0.01494288 0.1190859
v -0.2373078 0.01578808 0.09496114
v -0.2233452 0.03812861 0.0865511
v -0.2027248 0.03748381 0.1049598
v -0.2373078 0.01578808 0.09496114
v -0.2486408 0.01688385 0.06056184
v -0.2319928 0.03896475 0.06030225
v -0.2233452 0.03812861 0.0865511
v -0.2486408 0.01688385 0.06056184
v -0.2412471 0.01793683 0.02510519
v -0.226351 0.03976834 0.03324656
v -0.2319928 0.03896475 0.06030225
v -0.2412471 0.01793683 0.02510519
v -0.2171079 0.0186646 -0.001908228
v -0.2079313 0.04032373 0.01263364
v -0.226351 0.03976834 0.03324656
v -0.2171079 0.0186646 -0.001908228
v -0.1826915 0.0188725 -0.01324016
v -0.1816694 0.04048228 0.003986627
v -0.2079313 0.04032373 0.01263364
v -0.1472194 0.0185045 -0.005854234
v -0.1201967 0.01765931 0.01827051
v -0.1339819 0.03955674 0.0280313
v -0.1546019 0.04020154 0.009622574
v -0.1201967 0.01765931 0.01827051
v -0.1088638 0.01656353 0.05266982
v -0.1253343 0.03872049 0.05428013
v -0.1339819 0.03955674 0.0280313
v -0.1162574 0.01551068 0.08812647
v -0.1403966 0.01478279 0.1151398
v -0.1493957 0.03736162 0.1019487
v -0.1309761 0.03791702 0.08133578
v -0.1403966 0.01478279 0.1151398
v -0.174813 0.014575 0.1264718
v -0.1756576 0.03720307 0.1105957
v -0.1493957 0.03736162 0.1019487
v -0.174813 0.014575 0.1264718
v -0.2102849 0.01494288 0.1190859
v -0.2027248 0.03748381 0.1049598
v -0.1756576 0.03720307 0.1105957
v -0.1472194 0.0185045 -0.005854234
v -0.1546019 0.04020154 0.009622574
v -0.1565497 0.04022181 0.009217009
v -0.1253343 0.03872049 0.05428013
v -0.1088638 0.01656353 0.05266982
v -0.1162574 0.01551068 0.08812647
v -0.1276742 0.03838718 0.06550159
v -0.1162574 0.01551068 0.08812647
v -0.1309761 0.03791702 0.08133578
v -0.1276742 0.03838718 0.06550159
v -0.1816694 0.04048228 0.003986627
v -0.1826915 0.0188725 -0.01324016
v -0.1472194 0.0185045 -0.005854234
v -0.1707801 0.04036939 0.006253973
v -0.1472194 0.0185045 -0.005854234
v -0.1565497 0.04022181 0.009217009
v -0.1707801 0.04036939 0.006253973
v -0.1276742 0.03838718 0.06550159
v -0.1309761 0.03791702 0.08133578
v -0.2027248 0.03748381 0.1049598
v -0.2233452 0.03812861 0.0865511
v -0.2319928 0.03896475 0.06030225
v -0.1565497 0.04022181 0.009217009
v -0.1546019 0.04020154 0.009622574
v -0.1707801 0.04036939 0.006253973
v -0.1565497 0.04022181 0.009217009
v -0.2319928 0.03896475 0.06030225
v -0.226351 0.03976834 0.03324656
v -0.1546019 0.04020154 0.009622574
v -0.1339819 0.03955674 0.0280313
v -0.1253343 0.03872049 0.05428013
v -0.2027248 0.03748381 0.1049598
v -0.1309761 0.03791702 0.08133578
v -0.1493957 0.03736162 0.1019487
v -0.226351 0.03976834 0.03324656
v -0.2079313 0.04032373 0.01263364
v -0.1816694 0.04048228 0.003986627
v -0.1276742 0.03838718 0.06550159
v -0.1546019 0.04020154 0.009622574
v -0.1253343 0.03872049 0.05428013
v -0.2027248 0.03748381 0.1049598
v -0.1493957 0.03736162 0.1019487
v -0.1756576 0.03720307 0.1105957
v -0.1707801 0.04036939 0.006253973
v -0.226351 0.03976834 0.03324656
v -0.1816694 0.04048228 0.003986627
v 0.1834729 -0.03121972 -0.1940109
v 0.1834729 -0.02121973 -0.1940109
v -0.07652736 -0.02121973 -0.194011
v -0.07652736 -0.03121972 -0.194011
v 0.1834729 -0.03121972 0.1459894
v -0.07652736 -0.03121972 0.1459893
v -0.07652736 -0.02121973 0.1459894
v 0.1834729 -0.02121973 0.1459894
v 0.1662998 -0.03121972 0.06261966
v -0.07652736 -0.03121972 0.1459893
v 0.1834729 -0.03121972 0.1459894
v 0.1834729 -0.02121973 0.1459894
v -0.07652736 -0.02121973 0.1459894
v 0.1667335 -0.02121973 0.06139575
v 0.1834729 -0.03121972 0.1459894
v 0.1834729 -0.02121973 0.1459894
v 0.1834729 -0.02121973 0.07615742
v 0.1834729 -0.03121972 0.07776377
v 0.1834729 -0.03121972 0.07776377
v 0.1662998 -0.03121972 0.06261966
v 0.1834729 -0.03121972 0.1459894
v 0.1834729 -0.02121973 0.07615742
v 0.1834729 -0.02121973 0.1459894
v 0.1667335 -0.02121973 0.06139575
v 0.1834729 -0.03121972 0.04291864
v 0.1662998 -0.03121972 0.06261966
v 0.1667335 -0.02121973 0.06139575
v 0.1834729 -0.02121973 0.04219222
v 0.1667335 -0.02121973 0.06139575
v 0.1662998 -0.03121972 0.06261966
v 0.1834729 -0.03121972 0.07776377
v 0.1834729 -0.02121973 0.07615742
v 0.1834729 -0.02121973 -0.1940109
v 0.1834729 -0.03121972 -0.1940109
v 0.1834729 -0.03121972 -0.1393925
v 0.1834729 -0.02121973 -0.139537
v 0.1834729 -0.03121972 -0.1393925
v 0.1834729 -0.03121972 -0.1940109
v -0.07652736 -0.03121972 -0.194011
v 0.1612748 -0.03121972 -0.1219982
v -0.07652736 -0.02121973 -0.194011
v 0.1834729 -0.02121973 -0.1940109
v 0.1834729 -0.02121973 -0.139537
v 0.1616192 -0.02121973 -0.1224126
v 0.1834729 -0.03121972 0.04291864
v 0.1834729 -0.02121973 0.04219222
v 0.1834729 -0.02121973 -0.09448923
v 0.1834729 -0.03121972 -0.09363486
v 0.1834729 -0.03121972 -0.09363486
v 0.1612748 -0.03121972 -0.1219982
v -0.07652736 -0.03121972 0.1459893
v 0.1662998 -0.03121972 0.06261966
v 0.1834729 -0.03121972 0.04291864
v 0.1834729 -0.02121973 -0.09448923
v 0.1834729 -0.02121973 0.04219222
v 0.1667335 -0.02121973 0.06139575
v -0.07652736 -0.02121973 0.1459894
v 0.1616192 -0.02121973 -0.1224126
v 0.1834729 -0.03121972 -0.1393925
v 0.1612748 -0.03121972 -0.1219982
v 0.1616192 -0.02121973 -0.1224126
v 0.1834729 -0.02121973 -0.139537
v 0.1616192 -0.02121973 -0.1224126
v 0.1612748 -0.03121972 -0.1219982
v 0.1834729 -0.03121972 -0.09363486
v 0.1834729 -0.02121973 -0.09448923
v -0.05948877 -0.03121972 -0.1274109
v 0.1612748 -0.03121972 -0.1219982
v -0.07652736 -0.03121972 -0.194011
v -0.07652736 -0.02121973 -0.194011
v 0.1616192 -0.02121973 -0.1224126
v -0.05836391 -0.02121973 -0.1285077
v -0.07652736 -0.03121972 -0.194011
v -0.07652736 -0.02121973 -0.194011
v -0.07652736 -0.02121973 -0.1402904
v -0.07652736 -0.03121972 -0.1384638
v -0.07652736 -0.03121972 -0.1384638
v -0.05948877 -0.03121972 -0.1274109
v -0.07652736 -0.03121972 -0.194011
v -0.07652736 -0.02121973 -0.1402904
v -0.07652736 -0.02121973 -0.194011
v -0.05836391 -0.02121973 -0.1285077
v -0.07652736 -0.03121972 -0.1014415
v -0.05948877 -0.03121972 -0.1274109
v -0.05836391 -0.02121973 -0.1285077
v -0.07652736 -0.02121973 -0.1008238
v -0.05836391 -0.02121973 -0.1285077
v -0.05948877 -0.03121972 -0.1274109
v -0.07652736 -0.03121972 -0.1384638
v -0.07652736 -0.02121973 -0.1402904
v -0.07652736 -0.02121973 0.1459894
v -0.07652736 -0.03121972 0.1459893
v -0.07652736 -0.03121972 0.08039688
v -0.07652736 -0.02121973 0.08042108
v -0.07652736 -0.03121972 0.08039688
v -0.07652736 -0.03121972 0.1459893
v 0.1612748 -0.03121972 -0.1219982
v -0.05780852 -0.03121972 0.05730429
v -0.05780852 -0.03121972 0.05730429
v 0.1612748 -0.03121972 -0.1219982
v -0.05948877 -0.03121972 -0.1274109
v -0.05836391 -0.02121973 -0.1285077
v 0.1616192 -0.02121973 -0.1224126
v -0.05708706 -0.02121973 0.05643849
v 0.1616192 -0.02121973 -0.1224126
v -0.07652736 -0.02121973 0.1459894
v -0.07652736 -0.02121973 0.08042108
v -0.05708706 -0.02121973 0.05643849
v -0.07652736 -0.03121972 -0.1014415
v -0.07652736 -0.02121973 -0.1008238
v -0.07652736 -0.02121973 0.04068576
v -0.07652736 -0.03121972 0.04213613
v -0.07652736 -0.03121972 0.04213613
v -0.05780852 -0.03121972 0.05730429
v -0.05948877 -0.03121972 -0.1274109
v -0.07652736 -0.03121972 -0.1014415
v -0.07652736 -0.02121973 0.04068576
v -0.07652736 -0.02121973 -0.1008238
v -0.05836391 -0.02121973 -0.1285077
v -0.05708706 -0.02121973 0.05643849
v -0.07652736 -0.03121972 0.08039688
v -0.05780852 -0.03121972 0.05730429
v -0.05708706 -0.02121973 0.05643849
v -0.07652736 -0.02121973 0.08042108
v -0.05708706 -0.02121973 0.05643849
v -0.05780852 -0.03121972 0.05730429
v -0.07652736 -0.03121972 0.04213613
v -0.07652736 -0.02121973 0.04068576
v 0.1983062 -0.02121985 -0.1845106
v 0.1983062 -0.02846992 -0.1864532
v -0.09169376 -0.0284698 -0.1864533
v -0.09169376 -0.02121985 -0.1845107
v 0.1983062 -0.02846992 -0.1864532
v 0.1983062 -0.03377724 -0.1917606
v -0.09169376 -0.03377712 -0.1917606
v -0.09169376 -0.0284698 -0.1864533
v 0.1983062 -0.03377724 -0.1917606
v 0.1983062 -0.03571987 -0.1990105
v -0.09169376 -0.03571975 -0.1990107
v -0.09169376 -0.03377712 -0.1917606
v 0.1983062 -0.03571987 -0.1990105
v 0.1983062 -0.03377724 -0.2062605
v -0.09169376 -0.03377712 -0.2062606
v -0.09169376 -0.03571975 -0.1990107
v 0.1983062 -0.03377724 -0.2062605
v 0.1983062 -0.02846992 -0.2115679
v -0.09169376 -0.0284698 -0.211568
v -0.09169376 -0.03377712 -0.2062606
v 0.1983062 -0.02846992 -0.2115679
v 0.1983062 -0.02121985 -0.2135106
v -0.09169376 -0.02121985 -0.2135106
v -0.09169376 -0.0284698 -0.211568
v 0.1983062 -0.02121985 -0.2135106
v 0.1983062 -0.0139699 -0.2115679
v -0.09169376 -0.01396978 -0.211568
v -0.09169376 -0.02121985 -0.2135106
v 0.1983062 -0.0139699 -0.2115679
v 0.1983062 -0.008662581 -0.2062605
v -0.09169376 -0.008662462 -0.2062606
v -0.09169376 -0.01396978 -0.211568
v 0.1983062 -0.008662581 -0.2062605
v 0.1983062 -0.006719947 -0.1990105
v -0.09169376 -0.006719828 -0.1990106
v -0.09169376 -0.008662462 -0.2062606
v 0.1983062 -0.006719947 -0.1990105
v 0.1983062 -0.008662581 -0.1917606
v -0.09169376 -0.008662462 -0.1917606
v -0.09169376 -0.006719828 -0.1990106
v 0.1983062 -0.008662581 -0.1917606
v 0.1983062 -0.0139699 -0.1864532
v -0.09169376 -0.01396978 -0.1864533
v -0.09169376 -0.008662462 -0.1917606
v 0.1983062 -0.0139699 -0.1864532
v 0.1983062 -0.02121985 -0.1845106
v -0.09169376 -0.02121985 -0.1845107
v -0.09169376 -0.01396978 -0.1864533
v 0.1983062 -0.0139699 -0.1864532
v 0.1983062 -0.008662581 -0.1917606
v 0.1983062 -0.006719947 -0.1990105
v 0.1983062 -0.008662581 -0.2062605
v 0.1983062 -0.0139699 -0.2115679
v 0.1983062 -0.02121985 -0.2135106
v 0.1983062 -0.02846992 -0.2115679
v 0.1983062 -0.03377724 -0.2062605
v 0.1983062 -0.03571987 -0.1990105
v 0.1983062 -0.03377724 -0.1917606
v 0.1983062 -0.02846992 -0.1864532
v 0.1983062 -0.02121985 -0.1845106
v -0.09169376 -0.02121985 -0.1845107
v -0.09169376 -0.0284698 -0.1864533
v -0.09169376 -0.03377712 -0.1917606
v -0.09169376 -0.03571975 -0.1990107
v -0.09169376 -0.03377712 -0.2062606
v -0.09169376 -0.0284698 -0.211568
v -0.09169376 -0.02121985 -0.2135106
v -0.09169376 -0.01396978 -0.211568
v -0.09169376 -0.008662462 -0.2062606
v -0.09169376 -0.006719828 -0.1990106
v -0.09169376 -0.008662462 -0.1917606
v -0.09169376 -0.01396978 -0.1864533
v 0.2039245 -0.02090669 0.1729858
v 0.2039263 -0.02839065 0.170917
v -0.09605491 -0.02935231 0.1741488
v -0.0960567 -0.02186847 0.1762176
v 0.2039263 -0.02839065 0.170917
v 0.2038841 -0.03383756 0.1653837
v -0.09609711 -0.03479922 0.1686155
v -0.09605491 -0.02935231 0.1741488
v 0.2038841 -0.03383756 0.1653837
v 0.2038094 -0.03578794 0.1578684
v -0.09617186 -0.03674972 0.1611003
v -0.09609711 -0.03479922 0.1686155
v 0.2038094 -0.03578794 0.1578684
v 0.2037221 -0.0337193 0.150385
v -0.09625912 -0.03468108 0.1536168
v -0.09617186 -0.03674972 0.1611003
v 0.2037221 -0.0337193 0.150385
v 0.2036457 -0.02818596 0.1449386
v -0.09633553 -0.02914762 0.1481704
v -0.09625912 -0.03468108 0.1536168
v 0.2036457 -0.02818596 0.1449386
v 0.2036006 -0.02067029 0.1429884
v -0.09638059 -0.02163208 0.1462203
v -0.09633553 -0.02914762 0.1481704
v 0.2036006 -0.02067029 0.1429884
v 0.203599 -0.01318657 0.1450572
v -0.09638226 -0.01414812 0.1482891
v -0.09638059 -0.02163208 0.1462203
v 0.203599 -0.01318657 0.1450572
v 0.2036411 -0.007739544 0.1505906
v -0.09634018 -0.008701205 0.1538224
v -0.09638226 -0.01414812 0.1482891
v 0.2036411 -0.007739544 0.1505906
v 0.2037158 -0.005789042 0.1581058
v -0.09626544 -0.006750822 0.1613377
v -0.09634018 -0.008701205 0.1538224
v 0.2037158 -0.005789042 0.1581058
v 0.2038031 -0.00785768 0.1655892
v -0.09617817 -0.008819461 0.1688211
v -0.09626544 -0.006750822 0.1613377
v 0.2038031 -0.00785768 0.1655892
v 0.2038795 -0.01339126 0.1710357
v -0.09610176 -0.0143528 0.1742675
v -0.09617817 -0.008819461 0.1688211
v 0.2038795 -0.01339126 0.1710357
v 0.2039245 -0.02090669 0.1729858
v -0.0960567 -0.02186847 0.1762176
v -0.09610176 -0.0143528 0.1742675
v 0.2038795 -0.01339126 0.1710357
v 0.2038031 -0.00785768 0.1655892
v 0.2037158 -0.005789042 0.1581058
v 0.2036411 -0.007739544 0.1505906
v 0.203599 -0.01318657 0.1450572
v 0.2036006 -0.02067029 0.1429884
v 0.2036457 -0.02818596 0.1449386
v 0.2037221 -0.0337193 0.150385
v 0.2038094 -0.03578794 0.1578684
v 0.2038841 -0.03383756 0.1653837
v 0.2039263 -0.02839065 0.170917
v 0.2039245 -0.02090669 0.1729858
v -0.0960567 -0.02186847 0.1762176
v -0.09605491 -0.02935231 0.1741488
v -0.09609711 -0.03479922 0.1686155
v -0.09617186 -0.03674972 0.1611003
v -0.09625912 -0.03468108 0.1536168
v -0.09633553 -0.02914762 0.1481704
v -0.09638059 -0.02163208 0.1462203
v -0.09638226 -0.01414812 0.1482891
v -0.09634018 -0.008701205 0.1538224
v -0.09626544 -0.006750822 0.1613377
v -0.09617817 -0.008819461 0.1688211
v -0.09610176 -0.0143528 0.1742675
v 0.1983062 -0.02122009 -0.1940106
v 0.1983062 -0.01872015 -0.1946804
v 0.2083062 -0.01872015 -0.1946804
v 0.2083062 -0.02122009 -0.1940106
v 0.1983062 -0.01872015 -0.1946804
v 0.1983062 -0.01688993 -0.1965106
v 0.2083062 -0.01688993 -0.1965106
v 0.2083062 -0.01872015 -0.1946804
v 0.1983062 -0.01688993 -0.1965106
v 0.1983062 -0.01622009 -0.1990106
v 0.2083062 -0.01622009 -0.1990106
v 0.2083062 -0.01688993 -0.1965106
v 0.1983062 -0.01622009 -0.1990106
v 0.1983062 -0.01688993 -0.2015106
v 0.2083062 -0.01688993 -0.2015106
v 0.2083062 -0.01622009 -0.1990106
v 0.1983062 -0.01688993 -0.2015106
v 0.1983062 -0.01872003 -0.2033407
v 0.2083062 -0.01872003 -0.2033407
v 0.2083062 -0.01688993 -0.2015106
v 0.1983062 -0.01872003 -0.2033407
v 0.1983062 -0.02122009 -0.2040106
v 0.2083062 -0.02122009 -0.2040106
v 0.2083062 -0.01872003 -0.2033407
v 0.1983062 -0.02122009 -0.2040106
v 0.1983062 -0.02372003 -0.2033407
v 0.2083062 -0.02372003 -0.2033407
v 0.2083062 -0.02122009 -0.2040106
v 0.1983062 -0.02372003 -0.2033407
v 0.1983062 -0.02555025 -0.2015106
v 0.2083062 -0.02555025 -0.2015106
v 0.2083062 -0.02372003 -0.2033407
v 0.1983062 -0.02555025 -0.2015106
v 0.1983062 -0.02622008 -0.1990106
v 0.2083062 -0.02622008 -0.1990106
v 0.2083062 -0.02555025 -0.2015106
v 0.1983062 -0.02622008 -0.1990106
v 0.1983062 -0.02555025 -0.1965106
v 0.2083062 -0.02555025 -0.1965106
v 0.2083062 -0.02622008 -0.1990106
v 0.1983062 -0.02555025 -0.1965106
v 0.1983062 -0.02372015 -0.1946804
v 0.2083062 -0.02372015 -0.1946804
v 0.2083062 -0.02555025 -0.1965106
v 0.1983062 -0.02372015 -0.1946804
v 0.1983062 -0.02122009 -0.1940106
v 0.2083062 -0.02122009 -0.1940106
v 0.2083062 -0.02372015 -0.1946804
v 0.1983062 -0.02372015 -0.1946804
v 0.1983062 -0.02555025 -0.1965106
v 0.1983062 -0.02622008 -0.1990106
v 0.1983062 -0.02555025 -0.2015106
v 0.1983062 -0.02372003 -0.2033407
v 0.1983062 -0.02122009 -0.2040106
v 0.1983062 -0.01872003 -0.2033407
v 0.1983062 -0.01688993 -0.2015106
v 0.1983062 -0.01622009 -0.1990106
v 0.1983062 -0.01688993 -0.1965106
v 0.1983062 -0.01872015 -0.1946804
v 0.1983062 -0.02122009 -0.1940106
v 0.2083062 -0.02122009 -0.1940106
v 0.2083062 -0.01872015 -0.1946804
v 0.2083062 -0.01688993 -0.1965106
v 0.2083062 -0.01622009 -0.1990106
v 0.2083062 -0.01688993 -0.2015106
v 0.2083062 -0.01872003 -0.2033407
v 0.2083062 -0.02122009 -0.2040106
v 0.2083062 -0.02372003 -0.2033407
v 0.2083062 -0.02555025 -0.2015106
v 0.2083062 -0.02622008 -0.1990106
v 0.2083062 -0.02555025 -0.1965106
v 0.2083062 -0.02372015 -0.1946804
v 0.1529274 -0.01961362 0.07800175
v 0.1539577 -0.01853991 0.06859242
v 0.1452942 -0.01990879 0.07230981
v -0.04962718 -0.01795387 0.07285605
v 0.1529274 -0.01961362 0.07800175
v -0.05473149 -0.01868057 0.08086653
v -0.04962718 -0.01795387 0.07285605
v 0.1539577 -0.01853991 0.06859242
v 0.1529274 -0.01961362 0.07800175
v -0.05913198 -0.01842451 0.07242136
v 0.1539577 -0.01853991 0.06859242
v -0.04962718 -0.01795387 0.07285605
v -0.05913198 -0.01842451 0.07242136
v 0.1452942 -0.01990879 0.07230981
v 0.1539577 -0.01853991 0.06859242
v -0.05473149 -0.01868057 0.08086653
v 0.1452942 -0.01990879 0.07230981
v -0.05913198 -0.01842451 0.07242136
v -0.05473149 -0.01868057 0.08086653
v 0.1529274 -0.01961362 0.07800175
v 0.1452942 -0.01990879 0.07230981
v -0.05913198 -0.01842451 0.07242136
v -0.04962718 -0.01795387 0.07285605
v -0.05473149 -0.01868057 0.08086653
v -0.1013963 -0.02113843 0.1646599
v -0.1012568 -0.01868331 0.1638525
v -0.09127641 -0.01909637 0.1643195
v -0.09141576 -0.02155149 0.1651269
v -0.1012568 -0.01868331 0.1638525
v -0.1010956 -0.01696336 0.1619252
v -0.091115 -0.01737642 0.1623922
v -0.09127641 -0.01909637 0.1643195
v -0.1010956 -0.01696336 0.1619252
v -0.1009555 -0.01643932 0.1593945
v -0.09097493 -0.01685238 0.1598615
v -0.091115 -0.01737642 0.1623922
v -0.1009555 -0.01643932 0.1593945
v -0.1008742 -0.01725173 0.1569385
v -0.09089363 -0.01766479 0.1574055
v -0.09097493 -0.01685238 0.1598615
v -0.1008742 -0.01725173 0.1569385
v -0.1008735 -0.0191828 0.1552152
v -0.09089291 -0.01959574 0.1556822
v -0.09089363 -0.01766479 0.1574055
v -0.1008735 -0.0191828 0.1552152
v -0.1009535 -0.02171504 0.1546864
v -0.0909729 -0.02212811 0.1551534
v -0.09089291 -0.01959574 0.1556822
v -0.1009535 -0.02171504 0.1546864
v -0.1010928 -0.02417016 0.1554938
v -0.09111238 -0.02458322 0.1559608
v -0.0909729 -0.02212811 0.1551534
v -0.1010928 -0.02417016 0.1554938
v -0.1012542 -0.02589011 0.1574211
v -0.09127367 -0.02630317 0.1578881
v -0.09111238 -0.02458322 0.1559608
v -0.1012542 -0.02589011 0.1574211
v -0.1013943 -0.02641416 0.1599518
v -0.09141374 -0.02682722 0.1604188
v -0.09127367 -0.02630317 0.1578881
v -0.1013943 -0.02641416 0.1599518
v -0.1014756 -0.02560174 0.1624078
v -0.09149504 -0.0260148 0.1628748
v -0.09141374 -0.02682722 0.1604188
v -0.1014756 -0.02560174 0.1624078
v -0.1014763 -0.02367079 0.1641311
v -0.09149575 -0.02408373 0.1645981
v -0.09149504 -0.0260148 0.1628748
v -0.1014763 -0.02367079 0.1641311
v -0.1013963 -0.02113843 0.1646599
v -0.09141576 -0.02155149 0.1651269
v -0.09149575 -0.02408373 0.1645981
v -0.1014763 -0.02367079 0.1641311
v -0.1014756 -0.02560174 0.1624078
v -0.1013943 -0.02641416 0.1599518
v -0.1012542 -0.02589011 0.1574211
v -0.1010928 -0.02417016 0.1554938
v -0.1009535 -0.02171504 0.1546864
v -0.1008735 -0.0191828 0.1552152
v -0.1008742 -0.01725173 0.1569385
v -0.1009555 -0.01643932 0.1593945
v -0.1010956 -0.01696336 0.1619252
v -0.1012568 -0.01868331 0.1638525
v -0.1013963 -0.02113843 0.1646599
v -0.09141576 -0.02155149 0.1651269
v -0.09127641 -0.01909637 0.1643195
v -0.091115 -0.01737642 0.1623922
v -0.09097493 -0.01685238 0.1598615
v -0.09089363 -0.01766479 0.1574055
v -0.09089291 -0.01959574 0.1556822
v -0.0909729 -0.02212811 0.1551534
v -0.09111238 -0.02458322 0.1559608
v -0.09127367 -0.02630317 0.1578881
v -0.09141374 -0.02682722 0.1604188
v -0.09149504 -0.0260148 0.1628748
v -0.09149575 -0.02408373 0.1645981
v 0.2032697 -0.02281117 0.1661039
v 0.2032714 -0.02032006 0.1654014
v 0.2132713 -0.02034271 0.1653454
v 0.2132695 -0.0228337 0.1660479
v 0.2032714 -0.02032006 0.1654014
v 0.2032651 -0.01851404 0.1635475
v 0.2132649 -0.01853657 0.1634915
v 0.2132713 -0.02034271 0.1653454
v 0.2032651 -0.01851404 0.1635475
v 0.2032524 -0.01787686 0.1610391
v 0.2132523 -0.01789939 0.160983
v 0.2132649 -0.01853657 0.1634915
v 0.2032524 -0.01787686 0.1610391
v 0.2032369 -0.01857924 0.1585481
v 0.2132368 -0.01860189 0.158492
v 0.2132523 -0.01789939 0.160983
v 0.2032369 -0.01857924 0.1585481
v 0.2032226 -0.02043319 0.156742
v 0.2132225 -0.02045572 0.156686
v 0.2132368 -0.01860189 0.158492
v 0.2032226 -0.02043319 0.156742
v 0.2032135 -0.02294171 0.1561049
v 0.2132132 -0.02296424 0.1560489
v 0.2132225 -0.02045572 0.156686
v 0.2032135 -0.02294171 0.1561049
v 0.2032117 -0.02543271 0.1568074
v 0.2132115 -0.02545536 0.1567513
v 0.2132132 -0.02296424 0.1560489
v 0.2032117 -0.02543271 0.1568074
v 0.203218 -0.02723885 0.1586612
v 0.2132179 -0.02726138 0.1586052
v 0.2132115 -0.02545536 0.1567513
v 0.203218 -0.02723885 0.1586612
v 0.2032306 -0.02787602 0.1611697
v 0.2132305 -0.02789855 0.1611137
v 0.2132179 -0.02726138 0.1586052
v 0.2032306 -0.02787602 0.1611697
v 0.2032461 -0.02717352 0.1636607
v 0.213246 -0.02719617 0.1636047
v 0.2132305 -0.02789855 0.1611137
v 0.2032461 -0.02717352 0.1636607
v 0.2032604 -0.0253197 0.1654668
v 0.2132603 -0.02534223 0.1654107
v 0.213246 -0.02719617 0.1636047
v 0.2032604 -0.0253197 0.1654668
v 0.2032697 -0.02281117 0.1661039
v 0.2132695 -0.0228337 0.1660479
v 0.2132603 -0.02534223 0.1654107
v 0.2032604 -0.0253197 0.1654668
v 0.2032461 -0.02717352 0.1636607
v 0.2032306 -0.02787602 0.1611697
v 0.203218 -0.02723885 0.1586612
v 0.2032117 -0.02543271 0.1568074
v 0.2032135 -0.02294171 0.1561049
v 0.2032226 -0.02043319 0.156742
v 0.2032369 -0.01857924 0.1585481
v 0.2032524 -0.01787686 0.1610391
v 0.2032651 -0.01851404 0.1635475
v 0.2032714 -0.02032006 0.1654014
v 0.2032697 -0.02281117 0.1661039
v 0.2132695 -0.0228337 0.1660479
v 0.2132713 -0.02034271 0.1653454
v 0.2132649 -0.01853657 0.1634915
v 0.2132523 -0.01789939 0.160983
v 0.2132368 -0.01860189 0.158492
v 0.2132225 -0.02045572 0.156686
v 0.2132132 -0.02296424 0.1560489
v 0.2132115 -0.02545536 0.1567513
v 0.2132179 -0.02726138 0.1586052
v 0.2132305 -0.02789855 0.1611137
v 0.213246 -0.02719617 0.1636047
v 0.2132603 -0.02534223 0.1654107
v 0.09764028 -0.02115417 0.1040142
v 0.1003147 -0.02110445 0.09487117
v 0.0910598 -0.02121317 0.09712631
v -0.04770625 -0.01847589 0.09437788
v 0.09764028 -0.02115417 0.1040142
v -0.05298293 -0.01914752 0.1022808
v -0.04770625 -0.01847589 0.09437788
v 0.1003147 -0.02110445 0.09487117
v 0.09764028 -0.02115417 0.1040142
v -0.05719745 -0.01898587 0.0937391
v 0.1003147 -0.02110445 0.09487117
v -0.04770625 -0.01847589 0.09437788
v -0.05719745 -0.01898587 0.0937391
v 0.0910598 -0.02121317 0.09712631
v 0.1003147 -0.02110445 0.09487117
v -0.05298293 -0.01914752 0.1022808
v 0.0910598 -0.02121317 0.09712631
v -0.05719745 -0.01898587 0.0937391
v -0.05298293 -0.01914752 0.1022808
v 0.09764028 -0.02115417 0.1040142
v 0.0910598 -0.02121317 0.09712631
v -0.05719745 -0.01898587 0.0937391
v -0.04770625 -0.01847589 0.09437788
v -0.05298293 -0.01914752 0.1022808
v 0.006098747 -0.01923776 -0.09270744
v 0.02530897 -0.01916015 -0.1219643
v 0.009576917 -0.01907933 -0.1532292
v -0.02536547 -0.01907599 -0.1552372
v -0.04457569 -0.01915359 -0.1259803
v -0.02884364 -0.01923442 -0.09471546
v 0.02389085 -0.01128006 -0.1213724
v 0.006098747 -0.01923776 -0.09270744
v 0.004971504 -0.01168323 -0.09192948
v 0.02389085 -0.01128006 -0.1213724
v 0.02530897 -0.01916015 -0.1219643
v 0.006098747 -0.01923776 -0.09270744
v 0.007850409 -0.01103306 -0.1524794
v 0.02530897 -0.01916015 -0.1219643
v 0.02389085 -0.01128006 -0.1213724
v 0.007850409 -0.01103306 -0.1524794
v 0.009576917 -0.01907933 -0.1532292
v 0.02530897 -0.01916015 -0.1219643
v -0.02710974 -0.01118934 -0.1541432
v 0.009576917 -0.01907933 -0.1532292
v 0.007850409 -0.01103306 -0.1524794
v -0.02710974 -0.01118934 -0.1541432
v -0.02536547 -0.01907599 -0.1552372
v 0.009576917 -0.01907933 -0.1532292
v -0.04602921 -0.01159251 -0.1247002
v -0.02536547 -0.01907599 -0.1552372
v -0.02710974 -0.01118934 -0.1541432
v -0.04602921 -0.01159251 -0.1247002
v -0.04457569 -0.01915359 -0.1259803
v -0.02536547 -0.01907599 -0.1552372
v -0.02998865 -0.01183939 -0.09359331
v -0.04457569 -0.01915359 -0.1259803
v -0.04602921 -0.01159251 -0.1247002
v -0.02998865 -0.01183939 -0.09359331
v -0.02884364 -0.01923442 -0.09471546
v -0.04457569 -0.01915359 -0.1259803
v 0.004971504 -0.01168323 -0.09192948
v -0.02884364 -0.01923442 -0.09471546
v -0.02998865 -0.01183939 -0.09359331
v 0.004971504 -0.01168323 -0.09192948
v 0.006098747 -0.01923776 -0.09270744
v -0.02884364 -0.01923442 -0.09471546
v -0.02998865 -0.01183939 -0.09359331
v -0.04602921 -0.01159251 -0.1247002
v -0.03388619 -0.01398301 -0.1250131
v -0.02336204 -0.01414514 -0.1046038
v -0.04602921 -0.01159251 -0.1247002
v -0.02710974 -0.01118934 -0.1541432
v -0.02147317 -0.01371861 -0.1443306
v -0.03388619 -0.01398301 -0.1250131
v -0.02710974 -0.01118934 -0.1541432
v 0.007850409 -0.01103306 -0.1524794
v 0.001464128 -0.01361609 -0.1432389
v -0.02147317 -0.01371861 -0.1443306
v 0.007850409 -0.01103306 -0.1524794
v 0.02389085 -0.01128006 -0.1213724
v 0.01198828 -0.01377809 -0.1228297
v 0.001464128 -0.01361609 -0.1432389
v 0.02389085 -0.01128006 -0.1213724
v 0.004971504 -0.01168323 -0.09192948
v -0.0004247427 -0.01404262 -0.1035122
v 0.01198828 -0.01377809 -0.1228297
v 0.004971504 -0.01168323 -0.09192948
v -0.02998865 -0.01183939 -0.09359331
v -0.02336204 -0.01414514 -0.1046038
v -0.0004247427 -0.01404262 -0.1035122
v -0.02336204 -0.01414514 -0.1046038
v -0.03388619 -0.01398301 -0.1250131
v -0.02147317 -0.01371861 -0.1443306
v 0.001464128 -0.01361609 -0.1432389
v 0.01198828 -0.01377809 -0.1228297
v -0.0004247427 -0.01404262 -0.1035122
v -0.09151042 -0.01618683 -0.1999813
v -0.09158611 -0.01661122 -0.1974293
v -0.1015813 -0.01665688 -0.1977332
v -0.1015058 -0.01623237 -0.2002852
v -0.09158611 -0.01661122 -0.1974293
v -0.0916394 -0.01825547 -0.1954311
v -0.1016346 -0.01830101 -0.195735
v -0.1015813 -0.01665688 -0.1977332
v -0.0916394 -0.01825547 -0.1954311
v -0.09165597 -0.02067876 -0.1945222
v -0.1016512 -0.0207243 -0.1948261
v -0.1016346 -0.01830101 -0.195735
v -0.09165597 -0.02067876 -0.1945222
v -0.09163141 -0.02323186 -0.1949461
v -0.1016268 -0.0232774 -0.1952501
v -0.1016512 -0.0207243 -0.1948261
v -0.09163141 -0.02323186 -0.1949461
v -0.0915724 -0.02523065 -0.1965893
v -0.1015676 -0.02527618 -0.1968932
v -0.1016268 -0.0232774 -0.1952501
v -0.0915724 -0.02523065 -0.1965893
v -0.09149456 -0.02613962 -0.1990113
v -0.1014899 -0.02618515 -0.1993153
v -0.1015676 -0.02527618 -0.1968932
v -0.09149456 -0.02613962 -0.1990113
v -0.09141898 -0.02571511 -0.2015634
v -0.1014142 -0.02576077 -0.2018673
v -0.1014899 -0.02618515 -0.1993153
v -0.09141898 -0.02571511 -0.2015634
v -0.09136569 -0.02407098 -0.2035615
v -0.1013609 -0.02411652 -0.2038655
v -0.1014142 -0.02576077 -0.2018673
v -0.09136569 -0.02407098 -0.2035615
v -0.09134912 -0.02164769 -0.2044704
v -0.1013443 -0.02169323 -0.2047743
v -0.1013609 -0.02411652 -0.2038655
v -0.09134912 -0.02164769 -0.2044704
v -0.09137356 -0.01909459 -0.2040465
v -0.1013689 -0.01914012 -0.2043504
v -0.1013443 -0.02169323 -0.2047743
v -0.09137356 -0.01909459 -0.2040465
v -0.09143269 -0.0170958 -0.2024034
v -0.1014279 -0.01714134 -0.2027073
v -0.1013689 -0.01914012 -0.2043504
v -0.09143269 -0.0170958 -0.2024034
v -0.09151042 -0.01618683 -0.1999813
v -0.1015058 -0.01623237 -0.2002852
v -0.1014279 -0.01714134 -0.2027073
v -0.09143269 -0.0170958 -0.2024034
v -0.09137356 -0.01909459 -0.2040465
v -0.09134912 -0.02164769 -0.2044704
v -0.09136569 -0.02407098 -0.2035615
v -0.09141898 -0.02571511 -0.2015634
v -0.09149456 -0.02613962 -0.1990113
v -0.0915724 -0.02523065 -0.1965893
v -0.09163141 -0.02323186 -0.1949461
v -0.09165597 -0.02067876 -0.1945222
v -0.0916394 -0.01825547 -0.1954311
v -0.09158611 -0.01661122 -0.1974293
v -0.09151042 -0.01618683 -0.1999813
v -0.1015058 -0.01623237 -0.2002852
v -0.1015813 -0.01665688 -0.1977332
v -0.1016346 -0.01830101 -0.195735
v -0.1016512 -0.0207243 -0.1948261
v -0.1016268 -0.0232774 -0.1952501
v -0.1015676 -0.02527618 -0.1968932
v -0.1014899 -0.02618515 -0.1993153
v -0.1014142 -0.02576077 -0.2018673
v -0.1013609 -0.02411652 -0.2038655
v -0.1013443 -0.02169323 -0.2047743
v -0.1013689 -0.01914012 -0.2043504
v -0.1014279 -0.01714134 -0.2027073
v 0.1524796 -0.02099407 0.05689988
v 0.1547847 -0.02027488 0.0476847
v 0.1456324 -0.02077401 0.05028038
v -0.04331982 -0.01569891 0.05161869
v 0.1524796 -0.02099407 0.05689988
v -0.04918909 -0.01657701 0.05907058
v -0.04331982 -0.01569891 0.05161869
v 0.1547847 -0.02027488 0.0476847
v 0.1524796 -0.02099407 0.05689988
v -0.05273831 -0.01608896 0.05024363
v 0.1547847 -0.02027488 0.0476847
v -0.04331982 -0.01569891 0.05161869
v -0.05273831 -0.01608896 0.05024363
v 0.1456324 -0.02077401 0.05028038
v 0.1547847 -0.02027488 0.0476847
v -0.04918909 -0.01657701 0.05907058
v 0.1456324 -0.02077401 0.05028038
v -0.05273831 -0.01608896 0.05024363
v -0.04918909 -0.01657701 0.05907058
v 0.1524796 -0.02099407 0.05689988
v 0.1456324 -0.02077401 0.05028038
v -0.05273831 -0.01608896 0.05024363
v -0.04331982 -0.01569891 0.05161869
v -0.04918909 -0.01657701 0.05907058
v 0.1011623 -0.02118468 0.005475849
v 0.1036797 -0.02051711 -0.003687501
v 0.09446931 -0.02098644 -0.001300231
v -0.04262459 -0.01929057 0.002537668
v 0.1011623 -0.02118468 0.005475849
v -0.04806364 -0.01986921 0.01033711
v -0.04262459 -0.01929057 0.002537668
v 0.1036797 -0.02051711 -0.003687501
v 0.1011623 -0.02118468 0.005475849
v -0.0521065 -0.01969504 0.001712993
v 0.1036797 -0.02051711 -0.003687501
v -0.04262459 -0.01929057 0.002537668
v -0.0521065 -0.01969504 0.001712993
v 0.09446931 -0.02098644 -0.001300231
v 0.1036797 -0.02051711 -0.003687501
v -0.04806364 -0.01986921 0.01033711
v 0.09446931 -0.02098644 -0.001300231
v -0.0521065 -0.01969504 0.001712993
v -0.04806364 -0.01986921 0.01033711
v 0.1011623 -0.02118468 0.005475849
v 0.09446931 -0.02098644 -0.001300231
v -0.0521065 -0.01969504 0.001712993
v -0.04262459 -0.01929057 0.002537668
v -0.04806364 -0.01986921 0.01033711
v 0.1520996 -0.01926088 -0.01570024
v 0.15307 -0.01837194 -0.02513517
v 0.1443964 -0.01929152 -0.02130462
v -0.04314828 -0.01572645 -0.02125807
v 0.1520996 -0.01926088 -0.01570024
v -0.04869926 -0.01624119 -0.01353337
v -0.04314828 -0.01572645 -0.02125807
v 0.15307 -0.01837194 -0.02513517
v 0.1520996 -0.01926088 -0.01570024
v -0.05261338 -0.0162164 -0.02221839
v 0.15307 -0.01837194 -0.02513517
v -0.04314828 -0.01572645 -0.02125807
v -0.05261338 -0.0162164 -0.02221839
v 0.1443964 -0.01929152 -0.02130462
v 0.15307 -0.01837194 -0.02513517
v -0.04869926 -0.01624119 -0.01353337
v 0.1443964 -0.01929152 -0.02130462
v -0.05261338 -0.0162164 -0.02221839
v -0.04869926 -0.01624119 -0.01353337
v 0.1520996 -0.01926088 -0.01570024
v 0.1443964 -0.01929152 -0.02130462
v -0.05261338 -0.0162164 -0.02221839
v -0.04314828 -0.01572645 -0.02125807
v -0.04869926 -0.01624119 -0.01353337
v 0.151951 -0.01717854 -0.03871039
v 0.152586 -0.01616859 -0.04816167
v 0.1440579 -0.01720083 -0.04404405
v 0.003818989 -0.01508868 -0.04183114
v 0.151951 -0.01717854 -0.03871039
v -0.0007368326 -0.0158323 -0.03349799
v 0.003818989 -0.01508868 -0.04183114
v 0.152586 -0.01616859 -0.04816167
v 0.151951 -0.01717854 -0.03871039
v -0.005672455 -0.01588142 -0.04164585
v 0.152586 -0.01616859 -0.04816167
v 0.003818989 -0.01508868 -0.04183114
v -0.005672455 -0.01588142 -0.04164585
v 0.1440579 -0.01720083 -0.04404405
v 0.152586 -0.01616859 -0.04816167
v -0.0007368326 -0.0158323 -0.03349799
v 0.1440579 -0.01720083 -0.04404405
v -0.005672455 -0.01588142 -0.04164585
v -0.0007368326 -0.0158323 -0.03349799
v 0.151951 -0.01717854 -0.03871039
v 0.1440579 -0.01720083 -0.04404405
v -0.005672455 -0.01588142 -0.04164585
v 0.003818989 -0.01508868 -0.04183114
v -0.0007368326 -0.0158323 -0.03349799
v 0.1244988 -0.01729214 -0.09817074
v 0.1253737 -0.01604784 -0.1075748
v 0.1167296 -0.01694286 -0.1036724
v 0.04179001 -0.01787341 -0.1031385
v 0.1244988 -0.01729214 -0.09817074
v 0.03822041 -0.01864398 -0.09433998
v 0.04179001 -0.01787341 -0.1031385
v 0.1253737 -0.01604784 -0.1075748
v 0.1244988 -0.01729214 -0.09817074
v 0.03235972 -0.01823401 -0.1018389
v 0.1253737 -0.01604784 -0.1075748
v 0.04179001 -0.01787341 -0.1031385
v 0.03235972 -0.01823401 -0.1018389
v 0.1167296 -0.01694286 -0.1036724
v 0.1253737 -0.01604784 -0.1075748
v 0.03822041 -0.01864398 -0.09433998
v 0.1167296 -0.01694286 -0.1036724
v 0.03235972 -0.01823401 -0.1018389
v 0.03822041 -0.01864398 -0.09433998
v 0.1244988 -0.01729214 -0.09817074
v 0.1167296 -0.01694286 -0.1036724
v 0.03235972 -0.01823401 -0.1018389
v 0.04179001 -0.01787341 -0.1031385
v 0.03822041 -0.01864398 -0.09433998
usemtl mat19
f 4 3 2 1
f 8 7 6 5
f 16 15 14 13
f 20 19 18 17
f 24 23 22 21
f 28 27 26 25
f 32 31 30 29
f 40 39 38 37
f 44 43 42 41
f 48 47 46 45
f 56 55 54 53
f 60 59 58 57
f 64 63 62 61
usemtl mat23
f 12 11 10 9
f 124 123 122 121
f 128 127 126 125
f 132 131 130 129
f 136 135 134 133
f 522 521 520 519
f 526 525 524 523
f 530 529 528 527
f 534 533 532 531
f 538 537 536 535
f 542 541 540 539
f 546 545 544 543
f 550 549 548 547
f 554 553 552 551
f 558 557 556 555
f 562 561 560 559
f 566 565 564 563
f 570 569 568 567
f 582 581 580 579 578 577 576 575 574 573 572 571
f 586 585 584 583
f 590 589 588 587
f 594 593 592 591
f 598 597 596 595
f 602 601 600 599
f 606 605 604 603
f 610 609 608 607
f 614 613 612 611
f 618 617 616 615
f 622 621 620 619
f 626 625 624 623
f 630 629 628 627
f 634 633 632 631
f 638 637 636 635
f 642 641 640 639
f 646 645 644 643
f 650 649 648 647
f 654 653 652 651
f 658 657 656 655
f 662 661 660 659
f 666 665 664 663
f 669 668 667
f 673 672 671 670
f 676 675 674
f 680 679 678 677
f 683 682 681
f 690 689 688 687 686 685 684
f 694 693 692 691
f 697 696 695
f 700 699 698
f 703 702 701
f 706 705 704
f 709 708 707
f 712 711 710
f 1059 1058 1057
f 1062 1061 1060
f 1065 1064 1063
f 1068 1067 1066
f 1071 1070 1069
f 1074 1073 1072
f 1077 1076 1075
f 1080 1079 1078
f 1227 1226 1225
f 1230 1229 1228
f 1233 1232 1231
f 1236 1235 1234
f 1239 1238 1237
f 1242 1241 1240
f 1245 1244 1243
f 1248 1247 1246
f 1395 1394 1393
f 1398 1397 1396
f 1401 1400 1399
f 1404 1403 1402
f 1407 1406 1405
f 1410 1409 1408
f 1413 1412 1411
f 1416 1415 1414
f 1419 1418 1417
f 1422 1421 1420
f 1425 1424 1423
f 1428 1427 1426
f 1431 1430 1429
f 1434 1433 1432
f 1437 1436 1435
f 1440 1439 1438
f 1443 1442 1441
f 1446 1445 1444
f 1449 1448 1447
f 1452 1451 1450
f 1455 1454 1453
f 1458 1457 1456
f 1461 1460 1459
f 1464 1463 1462
f 1467 1466 1465
f 1470 1469 1468
f 1473 1472 1471
f 1476 1475 1474
f 1479 1478 1477
f 1482 1481 1480
f 1485 1484 1483
f 1488 1487 1486
f 1491 1490 1489
f 1494 1493 1492
f 1497 1496 1495
f 1500 1499 1498
f 1503 1502 1501
f 1506 1505 1504
f 1509 1508 1507
f 1512 1511 1510
usemtl mat21
f 36 35 34 33
f 52 51 50 49
f 68 67 66 65
f 72 71 70 69
f 76 75 74 73
f 80 79 78 77
f 84 83 82 81
f 88 87 86 85
f 92 91 90 89
f 96 95 94 93
f 100 99 98 97
f 104 103 102 101
f 108 107 106 105
f 112 111 110 109
f 116 115 114 113
f 120 119 118 117
usemtl mat25
f 140 139 138 137
f 144 143 142 141
f 148 147 146 145
f 152 151 150 149
f 156 155 154 153
f 160 159 158 157
f 164 163 162 161
f 168 167 166 165
f 172 171 170 169
f 176 175 174 173
f 180 179 178 177
f 184 183 182 181
f 188 187 186 185
f 200 199 198 197 196 195 194 193 192 191 190 189
f 204 203 202 201
f 208 207 206 205
f 212 211 210 209
f 216 215 214 213
f 220 219 218 217
f 224 223 222 221
f 228 227 226 225
f 232 231 230 229
f 236 235 234 233
f 240 239 238 237
f 244 243 242 241
f 248 247 246 245
f 252 251 250 249
f 256 255 254 253
f 260 259 258 257
f 264 263 262 261
f 268 267 266 265
f 272 271 270 269
f 276 275 274 273
f 280 279 278 277
f 284 283 282 281
f 288 287 286 285
f 292 291 290 289
f 296 295 294 293
f 300 299 298 297
f 304 303 302 301
f 308 307 306 305
f 312 311 310 309
f 316 315 314 313
f 320 319 318 317
f 324 323 322 321
f 328 327 326 325
f 332 331 330 329
f 336 335 334 333
f 340 339 338 337
f 344 343 342 341
f 348 347 346 345
f 352 351 350 349
f 356 355 354 353
f 360 359 358 357
f 364 363 362 361
f 368 367 366 365
f 372 371 370 369
f 376 375 374 373
f 380 379 378 377
f 384 383 382 381
f 388 387 386 385
f 391 390 389
f 395 394 393 392
f 398 397 396
f 401 400 399
f 404 403 402
f 407 406 405
f 410 409 408
f 413 412 411
f 416 415 414
f 419 418 417
f 422 421 420
f 425 424 423
f 428 427 426
f 431 430 429
f 434 433 432
f 437 436 435
f 440 439 438
f 443 442 441
f 446 445 444
f 449 448 447
f 452 451 450
f 455 454 453
f 458 457 456
f 470 469 468 467 466 465 464 463 462 461 460 459
f 474 473 472 471
f 478 477 476 475
f 482 481 480 479
f 486 485 484 483
f 490 489 488 487
f 494 493 492 491
f 498 497 496 495
f 502 501 500 499
f 506 505 504 503
f 510 509 508 507
f 514 513 512 511
f 518 517 516 515
usemtl mat18
f 716 715 714 713
f 720 719 718 717
f 723 722 721
f 726 725 724
f 730 729 728 727
f 733 732 731
f 736 735 734
f 740 739 738 737
f 744 743 742 741
f 748 747 746 745
f 752 751 750 749
f 756 755 754 753
f 760 759 758 757
f 765 764 763 762 761
f 770 769 768 767 766
f 774 773 772 771
f 778 777 776 775
f 781 780 779
f 784 783 782
f 788 787 786 785
f 791 790 789
f 794 793 792
f 798 797 796 795
f 802 801 800 799
f 806 805 804 803
f 810 809 808 807
f 813 812 811
f 816 815 814
f 820 819 818 817
f 824 823 822 821
f 828 827 826 825
f 832 831 830 829
f 836 835 834 833
f 840 839 838 837
usemtl mat20
f 844 843 842 841
f 848 847 846 845
f 852 851 850 849
f 856 855 854 853
f 860 859 858 857
f 864 863 862 861
f 868 867 866 865
f 872 871 870 869
f 876 875 874 873
f 880 879 878 877
f 884 883 882 881
f 888 887 886 885
f 900 899 898 897 896 895 894 893 892 891 890 889
f 912 911 910 909 908 907 906 905 904 903 902 901
f 916 915 914 913
f 920 919 918 917
f 924 923 922 921
f 928 927 926 925
f 932 931 930 929
f 936 935 934 933
f 940 939 938 937
f 944 943 942 941
f 948 947 946 945
f 952 951 950 949
f 956 955 954 953
f 960 959 958 957
f 972 971 970 969 968 967 966 965 964 963 962 961
f 984 983 982 981 980 979 978 977 976 975 974 973
usemtl mat12
f 988 987 986 985
f 992 991 990 989
f 996 995 994 993
f 1000 999 998 997
f 1004 1003 1002 1001
f 1008 1007 1006 1005
f 1012 1011 1010 1009
f 1016 1015 1014 1013
f 1020 1019 1018 1017
f 1024 1023 1022 1021
f 1028 1027 1026 1025
f 1032 1031 1030 1029
f 1044 1043 1042 1041 1040 1039 1038 1037 1036 1035 1034 1033
f 1056 1055 1054 1053 1052 1051 1050 1049 1048 1047 1046 1045
f 1084 1083 1082 1081
f 1088 1087 1086 1085
f 1092 1091 1090 1089
f 1096 1095 1094 1093
f 1100 1099 1098 1097
f 1104 1103 1102 1101
f 1108 1107 1106 1105
f 1112 1111 1110 1109
f 1116 1115 1114 1113
f 1120 1119 1118 1117
f 1124 1123 1122 1121
f 1128 1127 1126 1125
f 1140 1139 1138 1137 1136 1135 1134 1133 1132 1131 1130 1129
f 1152 1151 1150 1149 1148 1147 1146 1145 1144 1143 1142 1141
f 1156 1155 1154 1153
f 1160 1159 1158 1157
f 1164 1163 1162 1161
f 1168 1167 1166 1165
f 1172 1171 1170 1169
f 1176 1175 1174 1173
f 1180 1179 1178 1177
f 1184 1183 1182 1181
f 1188 1187 1186 1185
f 1192 1191 1190 1189
f 1196 1195 1194 1193
f 1200 1199 1198 1197
f 1212 1211 1210 1209 1208 1207 1206 1205 1204 1203 1202 1201
f 1224 1223 1222 1221 1220 1219 1218 1217 1216 1215 1214 1213
f 1324 1323 1322 1321
f 1328 1327 1326 1325
f 1332 1331 1330 1329
f 1336 1335 1334 1333
f 1340 1339 1338 1337
f 1344 1343 1342 1341
f 1348 1347 1346 1345
f 1352 1351 1350 1349
f 1356 1355 1354 1353
f 1360 1359 1358 1357
f 1364 1363 1362 1361
f 1368 1367 1366 1365
f 1380 1379 1378 1377 1376 1375 1374 1373 1372 1371 1370 1369
f 1392 1391 1390 1389 1388 1387 1386 1385 1384 1383 1382 1381
usemtl mat8
f 1254 1253 1252 1251 1250 1249
f 1257 1256 1255
f 1260 1259 1258
f 1263 1262 1261
f 1266 1265 1264
f 1269 1268 1267
f 1272 1271 1270
f 1275 1274 1273
f 1278 1277 1276
f 1281 1280 1279
f 1284 1283 1282
f 1287 1286 1285
f 1290 1289 1288
f 1294 1293 1292 1291
f 1298 1297 1296 1295
f 1302 1301 1300 1299
f 1306 1305 1304 1303
f 1310 1309 1308 1307
f 1314 1313 1312 1311
f 1320 1319 1318 1317 1316 1315
